0
SECTION
2
HEADER
9
$ACADVER
1
AC1006
9
$INSBASE
10
0.0
20
0.0
30
0.0
9
$EXTMIN
10
0.0
20
0.0
9
$EXTMAX
10
0.0
20
0.0
0
ENDSEC
0
SECTION
2
TABLES
0
TABLE
2
LTYPE
70
1
0
LTYPE
2
CONTINUOUS
70
64
3
Solid line
72
65
73
0
40
0.0
0
ENDTAB
0
TABLE
2
LAYER
70
3
0
LAYER
2
PYDXF
70
64
62
7
6
continuous
0
LAYER
2
CUTS
70
64
62
0
6
continuous
0
LAYER
2
FOLDS
70
64
62
3
6
continuous
0
ENDTAB
0
TABLE
2
STYLE
70
1
0
STYLE
2
STANDARD
70
0
40
0
41
40
50
50
71
0
42
1
3
ARIAL.TTF
4

0
ENDTAB
0
TABLE
2
VIEW
70
0
0
ENDTAB
0
ENDSEC
0
SECTION
2
BLOCKS
0
ENDSEC
0
SECTION
2
ENTITIES
0
LINE
8
CUTS
10
0
20
-100.0
11
40.0
21
-100.0
0
LINE
8
CUTS
10
40.0
20
-100.0
11
40.0
21
-102.0
0
LINE
8
CUTS
10
40.0
20
-102.0
11
60.0
21
-102.0
0
LINE
8
CUTS
10
60.0
20
-102.0
11
60.0
21
-100.0
0
LINE
8
CUTS
10
60.0
20
-100.0
11
100.0
21
-100.0
0
LINE
8
CUTS
10
100.0
20
-100.0
11
100.0
21
-50.0
0
LINE
8
CUTS
10
0.0
20
-50.0
11
0.0
21
-100.0
0
LINE
8
FOLDS
10
0
20
-50.0
11
100.0
21
-50.0
0
LINE
8
CUTS
10
100.0
20
-50.0
11
130.0
21
-50.0
0
LINE
8
CUTS
10
130.0
20
-50.0
11
140.0
21
-40.0
0
LINE
8
CUTS
10
140.0
20
-40.0
11
140.0
21
0.0
0
LINE
8
CUTS
10
140.0
20
0.0
11
100.0
21
0.0
0
LINE
8
FOLDS
10
100.0
20
-50.0
11
100.0
21
0.0
0
LINE
8
CUTS
10
-30.0
20
-50.0
11
0.0
21
-50.0
0
LINE
8
CUTS
10
0.0
20
0.0
11
-40.0
21
0.0
0
LINE
8
CUTS
10
-40.0
20
0.0
11
-40.0
21
-40.0
0
LINE
8
CUTS
10
-40.0
20
-40.0
11
-30.0
21
-50.0
0
LINE
8
FOLDS
10
0.0
20
0.0
11
0.0
21
-50.0
0
LINE
8
FOLDS
10
0
20
0
11
100.0
21
0
0
LINE
8
CUTS
10
40.0
20
0
11
40.0
21
2.0
0
LINE
8
CUTS
10
40.0
20
2.0
11
60.0
21
2.0
0
LINE
8
CUTS
10
60.0
20
2.0
11
60.0
21
0
0
LINE
8
CUTS
10
100.0
20
0
11
150.0
21
0
0
LINE
8
CUTS
10
150.0
20
0
11
200.0
21
0
0
LINE
8
CUTS
10
200.0
20
0
11
200.0
21
40.0
0
LINE
8
CUTS
10
200.0
20
40.0
11
202.0
21
40.0
0
LINE
8
CUTS
10
202.0
20
40.0
11
202.0
21
60.0
0
LINE
8
CUTS
10
202.0
20
60.0
11
200.0
21
60.0
0
LINE
8
CUTS
10
200.0
20
60.0
11
200.0
21
100.0
0
LINE
8
CUTS
10
200.0
20
100.0
11
150.0
21
100.0
0
LINE
8
FOLDS
10
150.0
20
0
11
150.0
21
100.0
0
LINE
8
CUTS
10
150.0
20
100.0
11
100.0
21
100.0
0
LINE
8
FOLDS
10
100.0
20
0
11
100.0
21
100.0
0
LINE
8
CUTS
10
98.0
20
40.0
11
100.0
21
40.0
0
LINE
8
CUTS
10
98.0
20
40.0
11
98.0
21
60.0
0
LINE
8
CUTS
10
100.0
20
60.0
11
98.0
21
60.0
0
LINE
8
CUTS
10
100.0
20
100.0
11
140.0
21
100.0
0
LINE
8
CUTS
10
140.0
20
100.0
11
140.0
21
140.0
0
LINE
8
CUTS
10
140.0
20
140.0
11
130.0
21
150.0
0
LINE
8
CUTS
10
130.0
20
150.0
11
100.0
21
150.0
0
LINE
8
FOLDS
10
100.0
20
100.0
11
100.0
21
150.0
0
LINE
8
CUTS
10
100.0
20
150.0
11
120.0
21
160.0
0
LINE
8
CUTS
10
120.0
20
160.0
11
120.0
21
240.0
0
LINE
8
CUTS
10
120.0
20
240.0
11
100.0
21
250.0
0
LINE
8
FOLDS
10
100.0
20
150.0
11
100.0
21
250.0
0
LINE
8
CUTS
10
100.0
20
250.0
11
90.0
21
270.0
0
LINE
8
CUTS
10
90.0
20
270.0
11
10.0
21
270.0
0
LINE
8
CUTS
10
10.0
20
270.0
11
0.0
21
250.0
0
LINE
8
FOLDS
10
100.0
20
250.0
11
0.0
21
250.0
0
LINE
8
CUTS
10
-20.0
20
160.0
11
0.0
21
150.0
0
LINE
8
CUTS
10
0.0
20
250.0
11
-20.0
21
240.0
0
LINE
8
CUTS
10
-20.0
20
240.0
11
-20.0
21
160.0
0
LINE
8
FOLDS
10
0.0
20
250.0
11
0.0
21
150.0
0
LINE
8
FOLDS
10
100.0
20
150.0
11
0.0
21
150.0
0
LINE
8
CUTS
10
-40.0
20
100.0
11
0.0
21
100.0
0
LINE
8
CUTS
10
0.0
20
150.0
11
-30.0
21
150.0
0
LINE
8
CUTS
10
-30.0
20
150.0
11
-40.0
21
140.0
0
LINE
8
CUTS
10
-40.0
20
140.0
11
-40.0
21
100.0
0
LINE
8
FOLDS
10
0.0
20
150.0
11
0.0
21
100.0
0
LINE
8
FOLDS
10
100.0
20
100.0
11
0.0
21
100.0
0
LINE
8
CUTS
10
-50.0
20
0.0
11
0.0
21
0.0
0
LINE
8
CUTS
10
0.0
20
100.0
11
-50.0
21
100.0
0
LINE
8
CUTS
10
-100.0
20
0.0
11
-50.0
21
0.0
0
LINE
8
CUTS
10
-50.0
20
100.0
11
-100.0
21
100.0
0
LINE
8
CUTS
10
-100.0
20
100.0
11
-100.0
21
60.0
0
LINE
8
CUTS
10
-102.0
20
60.0
11
-100.0
21
60.0
0
LINE
8
CUTS
10
-102.0
20
40.0
11
-102.0
21
60.0
0
LINE
8
CUTS
10
-100.0
20
40.0
11
-102.0
21
40.0
0
LINE
8
CUTS
10
-100.0
20
40.0
11
-100.0
21
0.0
0
LINE
8
FOLDS
10
-50.0
20
100.0
11
-50.0
21
0.0
0
LINE
8
FOLDS
10
0.0
20
100.0
11
0.0
21
0.0
0
LINE
8
CUTS
10
2.0
20
60.0
11
0.0
21
60.0
0
LINE
8
CUTS
10
2.0
20
40.0
11
2.0
21
60.0
0
LINE
8
CUTS
10
0.0
20
40.0
11
2.0
21
40.0
0
ENDSEC
0
EOF
