0
SECTION
2
HEADER
9
$ACADVER
1
AC1006
9
$INSBASE
10
0.0
20
0.0
30
0.0
9
$EXTMIN
10
0.0
20
0.0
9
$EXTMAX
10
0.0
20
0.0
0
ENDSEC
0
SECTION
2
TABLES
0
TABLE
2
LTYPE
70
1
0
LTYPE
2
CONTINUOUS
70
64
3
Solid line
72
65
73
0
40
0.0
0
ENDTAB
0
TABLE
2
LAYER
70
3
0
LAYER
2
PYDXF
70
64
62
7
6
continuous
0
LAYER
2
CUTS
70
64
62
0
6
continuous
0
LAYER
2
FOLDS
70
64
62
3
6
continuous
0
ENDTAB
0
TABLE
2
STYLE
70
1
0
STYLE
2
STANDARD
70
0
40
0
41
40
50
50
71
0
42
1
3
ARIAL.TTF
4

0
ENDTAB
0
TABLE
2
VIEW
70
0
0
ENDTAB
0
ENDSEC
0
SECTION
2
BLOCKS
0
ENDSEC
0
SECTION
2
ENTITIES
0
LINE
8
CUTS
10
0
20
-80.0
11
90.0
21
-80.0
0
LINE
8
CUTS
10
90.0
20
-80.0
11
90.0
21
-82.0
0
LINE
8
CUTS
10
90.0
20
-82.0
11
110.0
21
-82.0
0
LINE
8
CUTS
10
110.0
20
-82.0
11
110.0
21
-80.0
0
LINE
8
CUTS
10
110.0
20
-80.0
11
200.0
21
-80.0
0
LINE
8
CUTS
10
200.0
20
-80.0
11
200.0
21
-40.0
0
LINE
8
CUTS
10
0.0
20
-40.0
11
0.0
21
-80.0
0
LINE
8
FOLDS
10
0
20
-40.0
11
200.0
21
-40.0
0
LINE
8
CUTS
10
200.0
20
-40.0
11
270.0
21
-40.0
0
LINE
8
CUTS
10
270.0
20
-40.0
11
280.0
21
-30.0
0
LINE
8
CUTS
10
280.0
20
-30.0
11
280.0
21
0.0
0
LINE
8
CUTS
10
280.0
20
0.0
11
200.0
21
0.0
0
LINE
8
FOLDS
10
200.0
20
-40.0
11
200.0
21
0.0
0
LINE
8
CUTS
10
-70.0
20
-40.0
11
0.0
21
-40.0
0
LINE
8
CUTS
10
0.0
20
0.0
11
-80.0
21
0.0
0
LINE
8
CUTS
10
-80.0
20
0.0
11
-80.0
21
-30.0
0
LINE
8
CUTS
10
-80.0
20
-30.0
11
-70.0
21
-40.0
0
LINE
8
FOLDS
10
0.0
20
0.0
11
0.0
21
-40.0
0
LINE
8
FOLDS
10
0
20
0
11
200.0
21
0
0
LINE
8
CUTS
10
90.0
20
0
11
90.0
21
2.0
0
LINE
8
CUTS
10
90.0
20
2.0
11
110.0
21
2.0
0
LINE
8
CUTS
10
110.0
20
2.0
11
110.0
21
0
0
LINE
8
CUTS
10
200.0
20
0
11
240.0
21
0
0
LINE
8
CUTS
10
240.0
20
0
11
280.0
21
0
0
LINE
8
CUTS
10
280.0
20
0
11
280.0
21
90.0
0
LINE
8
CUTS
10
280.0
20
90.0
11
282.0
21
90.0
0
LINE
8
CUTS
10
282.0
20
90.0
11
282.0
21
110.0
0
LINE
8
CUTS
10
282.0
20
110.0
11
280.0
21
110.0
0
LINE
8
CUTS
10
280.0
20
110.0
11
280.0
21
200.0
0
LINE
8
CUTS
10
280.0
20
200.0
11
240.0
21
200.0
0
LINE
8
FOLDS
10
240.0
20
0
11
240.0
21
200.0
0
LINE
8
CUTS
10
240.0
20
200.0
11
200.0
21
200.0
0
LINE
8
FOLDS
10
200.0
20
0
11
200.0
21
200.0
0
LINE
8
CUTS
10
198.0
20
90.0
11
200.0
21
90.0
0
LINE
8
CUTS
10
198.0
20
90.0
11
198.0
21
110.0
0
LINE
8
CUTS
10
200.0
20
110.0
11
198.0
21
110.0
0
LINE
8
CUTS
10
200.0
20
200.0
11
280.0
21
200.0
0
LINE
8
CUTS
10
280.0
20
200.0
11
280.0
21
230.0
0
LINE
8
CUTS
10
280.0
20
230.0
11
270.0
21
240.0
0
LINE
8
CUTS
10
270.0
20
240.0
11
200.0
21
240.0
0
LINE
8
FOLDS
10
200.0
20
200.0
11
200.0
21
240.0
0
LINE
8
CUTS
10
200.0
20
240.0
11
216.0
21
250.0
0
LINE
8
CUTS
10
216.0
20
250.0
11
216.0
21
430.0
0
LINE
8
CUTS
10
216.0
20
430.0
11
200.0
21
440.0
0
LINE
8
FOLDS
10
200.0
20
240.0
11
200.0
21
440.0
0
LINE
8
CUTS
10
200.0
20
440.0
11
190.0
21
456.0
0
LINE
8
CUTS
10
190.0
20
456.0
11
10.0
21
456.0
0
LINE
8
CUTS
10
10.0
20
456.0
11
0.0
21
440.0
0
LINE
8
FOLDS
10
200.0
20
440.0
11
0.0
21
440.0
0
LINE
8
CUTS
10
-16.0
20
250.0
11
0.0
21
240.0
0
LINE
8
CUTS
10
0.0
20
440.0
11
-16.0
21
430.0
0
LINE
8
CUTS
10
-16.0
20
430.0
11
-16.0
21
250.0
0
LINE
8
FOLDS
10
0.0
20
440.0
11
0.0
21
240.0
0
LINE
8
FOLDS
10
200.0
20
240.0
11
0.0
21
240.0
0
LINE
8
CUTS
10
-80.0
20
200.0
11
0.0
21
200.0
0
LINE
8
CUTS
10
0.0
20
240.0
11
-70.0
21
240.0
0
LINE
8
CUTS
10
-70.0
20
240.0
11
-80.0
21
230.0
0
LINE
8
CUTS
10
-80.0
20
230.0
11
-80.0
21
200.0
0
LINE
8
FOLDS
10
0.0
20
240.0
11
0.0
21
200.0
0
LINE
8
FOLDS
10
200.0
20
200.0
11
0.0
21
200.0
0
LINE
8
CUTS
10
-40.0
20
0.0
11
0.0
21
0.0
0
LINE
8
CUTS
10
0.0
20
200.0
11
-40.0
21
200.0
0
LINE
8
CUTS
10
-80.0
20
0.0
11
-40.0
21
0.0
0
LINE
8
CUTS
10
-40.0
20
200.0
11
-80.0
21
200.0
0
LINE
8
CUTS
10
-80.0
20
200.0
11
-80.0
21
110.0
0
LINE
8
CUTS
10
-82.0
20
110.0
11
-80.0
21
110.0
0
LINE
8
CUTS
10
-82.0
20
90.0
11
-82.0
21
110.0
0
LINE
8
CUTS
10
-80.0
20
90.0
11
-82.0
21
90.0
0
LINE
8
CUTS
10
-80.0
20
90.0
11
-80.0
21
0.0
0
LINE
8
FOLDS
10
-40.0
20
200.0
11
-40.0
21
0.0
0
LINE
8
FOLDS
10
0.0
20
200.0
11
0.0
21
0.0
0
LINE
8
CUTS
10
2.0
20
110.0
11
0.0
21
110.0
0
LINE
8
CUTS
10
2.0
20
90.0
11
2.0
21
110.0
0
LINE
8
CUTS
10
0.0
20
90.0
11
2.0
21
90.0
0
ENDSEC
0
EOF
